<?xml version="1.0" standalone="no"?><!DOCTYPE svg PUBLIC "-//W3C//DTD SVG 1.1//EN" "http://www.w3.org/Graphics/SVG/1.1/DTD/svg11.dtd"><svg t="1544027013085" class="icon" style="" viewBox="0 0 1024 1024" version="1.1" xmlns="http://www.w3.org/2000/svg" p-id="2531" xmlns:xlink="http://www.w3.org/1999/xlink" width="200" height="200"><defs><style type="text/css"></style></defs><path d="M189.34 104.416C185.444 150.672 137.24 157.972 137.24 157.972c41.388 1.948 51.7 56.236 51.7 56.236 0.884-38.708 53.284-56.808 53.284-56.808-39.252-2.348-52.884-52.984-52.884-52.984z" fill="#D7E057" p-id="2532"></path><path d="M242.584 151.412c-34.42-2.056-47.328-48.096-47.456-48.56a6 6 0 1 0-11.768 1.06c-3.44 40.86-45.252 47.852-47.016 48.128a6 6 0 0 0 0.616 11.928c36.112 1.7 45.996 50.876 46.092 51.372a6 6 0 0 0 11.892-0.988c0.78-34.036 48.768-51.108 49.252-51.276a6.008 6.008 0 0 0-1.612-11.664zM188.324 192.796c-5.428-12.52-14.836-27.628-30.348-35.504 11.724-5.62 25.636-15.652 32.808-33.092 6.204 12.284 16.8 27.52 33.34 34.888-12.036 6.56-27.696 17.624-35.8 33.708z" fill="#3A312A" p-id="2533"></path><path d="M102.544 172.34c-2.756 32.716-36.848 37.884-36.848 37.884 29.272 1.376 36.568 39.776 36.568 39.776 0.624-27.376 37.688-40.18 37.688-40.18-27.764-1.664-37.408-37.48-37.408-37.48z" fill="#D7E057" p-id="2534"></path><path d="M140.312 203.824c-23.064-1.38-31.888-32.74-31.976-33.056a6 6 0 0 0-11.768 1.064c-2.316 27.484-30.584 32.264-31.768 32.452a6 6 0 0 0 0.616 11.924c24.14 1.136 30.896 34.576 30.956 34.904a6 6 0 0 0 11.896-0.984c0.52-22.836 33.328-34.536 33.648-34.648a5.996 5.996 0 0 0-1.604-11.656z m-38.336 27.184c-3.696-7.544-9.36-15.788-17.788-21.12 7.42-4.164 14.788-10.52 19.484-19.664 4.228 7.492 10.616 15.816 19.764 20.892-7.404 4.404-15.956 10.96-21.46 19.892z" fill="#3A312A" p-id="2535"></path><path d="M102.544 65.708c-2.756 32.716-36.848 37.884-36.848 37.884 29.272 1.376 36.568 39.776 36.568 39.776 0.624-27.38 37.688-40.18 37.688-40.18-27.764-1.664-37.408-37.48-37.408-37.48z" fill="#D7E057" p-id="2536"></path><path d="M140.312 97.196c-23.064-1.38-31.892-32.744-31.976-33.06a6 6 0 0 0-11.768 1.064c-2.316 27.484-30.584 32.268-31.768 32.456a6 6 0 0 0 0.62 11.928c24.14 1.136 30.892 34.576 30.956 34.904a6 6 0 0 0 11.896-0.984c0.52-22.84 33.324-34.536 33.648-34.648a6 6 0 0 0-1.608-11.66z m-38.336 27.18c-3.696-7.54-9.36-15.788-17.788-21.12 7.42-4.164 14.788-10.52 19.484-19.664 4.228 7.496 10.616 15.816 19.764 20.896-7.404 4.404-15.956 10.96-21.46 19.888z" fill="#3A312A" p-id="2537"></path><path d="M574.364 65.668c-175.268-1.368-323.828 113.756-372.964 272.564a30.14 30.14 0 0 1-2.692 6.2L69.772 567.76c-11.92 20.644 2.98 46.448 26.816 46.448h120.432l4.308 4.308v108.46c0 42.74 34.648 77.392 77.392 77.392H364.8v153.98h412.968v-178.048c110-69.496 182.576-192.852 180.62-333.032-2.928-209.444-174.568-379.972-384.024-381.6z" fill="#FCE8CB" p-id="2538"></path><path d="M574.412 59.668c-86.232-0.584-168.388 26.092-237.408 77.404-66.7 49.58-116.896 120.392-141.336 199.388a24.448 24.448 0 0 1-2.156 4.976L64.576 564.76c-6.684 11.572-6.684 25.392 0 36.964 6.68 11.572 18.648 18.484 32.012 18.484h117.944l0.792 0.792v105.976c0 45.984 37.408 83.392 83.392 83.392H358.8v147.98a6 6 0 1 0 12 0v-153.98a6 6 0 0 0-6-6H298.72c-39.364 0-71.392-32.024-71.392-71.392v-108.46a6 6 0 0 0-1.756-4.24l-4.308-4.308a6 6 0 0 0-4.24-1.756H96.588a24.712 24.712 0 0 1-21.62-12.484 24.712 24.712 0 0 1 0-24.964l128.94-223.328a36.348 36.348 0 0 0 3.228-7.424c48.996-158.372 198.508-268.352 364.268-268.352 0.964 0 1.948 0.004 2.916 0.012 205.596 1.6 375.196 170.132 378.064 375.684 1.868 133.776-64.608 256.348-177.82 327.876a5.996 5.996 0 0 0-2.796 5.072v178.048a6 6 0 1 0 12 0v-174.756c115.076-74.02 182.528-199.524 180.616-336.408-2.96-212.032-177.9-385.868-389.972-387.52z" fill="#3A312A" p-id="2539"></path><path d="M571.28 214.32c-24.416 0-47.972 3.688-70.152 10.504L449.088 248c-69.636 41.64-116.28 117.756-116.28 204.792 0 131.704 106.768 238.472 238.472 238.472s238.472-106.768 238.472-238.472c0.004-131.704-106.764-238.472-238.472-238.472z" fill="#87796F" p-id="2540"></path><path d="M571.28 208.32c-24.472 0-48.668 3.624-71.916 10.772a6.004 6.004 0 0 0 3.528 11.472 232.496 232.496 0 0 1 68.388-10.24c128.188 0 232.472 104.288 232.472 232.476 0 128.184-104.284 232.472-232.472 232.472-128.184 0-232.472-104.288-232.472-232.472 0-81.336 43.436-157.832 113.36-199.64a6.008 6.008 0 0 0-6.16-10.304c-73.524 43.964-119.2 124.412-119.2 209.94 0 134.804 109.668 244.472 244.472 244.472 134.8 0 244.472-109.668 244.472-244.472S706.084 208.32 571.28 208.32z" fill="#3A312A" p-id="2541"></path><path d="M477.524 362.472c-7.108 19.604-11.572 40.968-11.572 63.356 0 94.588 79.792 171.264 105.332 171.264 26.292 0 105.332-76.676 105.332-171.264 0-94.588-80.544-171.264-105.332-171.264-18.94 0-65.244 39.796-89.664 97.408l-4.096 10.5z" fill="#D7E057" p-id="2542"></path><path d="M638.044 301.128c-22.832-30.456-50.908-52.564-66.76-52.564-30.496 0-111.328 80.516-111.328 177.264s80.832 177.264 111.328 177.264c30.496 0 111.332-80.516 111.332-177.264-0.004-56.768-27.928-102.496-44.572-124.7z m-66.764 289.968c-20.1 0-99.328-72.26-99.328-165.264 0-94.956 78.568-165.264 99.328-165.264 20.1 0 99.332 72.26 99.332 165.264 0 94.956-78.568 165.264-99.332 165.264z" fill="#3A312A" p-id="2543"></path><path d="M417.52 368.88c-17.792 38.96-29.764 99.448-9.32 155.912 32.208 88.936 133.336 133.86 157.352 125.168 24.72-8.952 72.928-107.96 40.724-196.896-32.204-88.936-134.044-133.608-157.352-125.168-7.552 2.736-17.296 13.908-26.272 30.604l-5.132 10.38z" fill="#D7E057" p-id="2544"></path><path d="M611.916 451.02c-19.328-53.38-61.152-86.864-84.364-102.076-31.84-20.864-65.772-32.104-80.672-26.688-15.632 5.66-34.308 35.416-45.412 72.368-7.928 26.368-18.324 78.608 1.088 132.212 29.988 82.804 118.368 130.156 155.616 130.156 3.668 0 6.844-0.46 9.416-1.392 28.68-10.384 77.268-113.616 44.328-204.58z m-48.408 193.3c-18.932 6.848-118-34.128-149.668-121.568-18.232-50.352-8.376-99.724-0.88-124.672 11.68-38.868 29.584-61.488 38.008-64.54 8.416-3.052 37.428 4.096 70.004 25.444 21.964 14.392 61.516 46.012 79.66 96.124 32.332 89.276-17.6 182.14-37.124 189.212z" fill="#3A312A" p-id="2545"></path><path d="M531.44 462.232a179.46 179.46 0 0 0-3.632 11.096l-7.652 57.676c0.492 58.696 24.072 109.368 39.896 116.78 23.808 11.148 127.908-24.772 168.024-110.428 40.112-85.66-0.312-189.256-22.76-199.772-23.808-11.148-127.908 24.772-168.02 110.428a165.008 165.008 0 0 0-3.392 7.824l-2.464 6.396z" fill="#D7E057" p-id="2546"></path><path d="M746.028 408.068c-7.76-37.264-23.812-69.192-38.172-75.916-27.6-12.932-134.972 25.704-176 113.32a180.484 180.484 0 0 0-9.812 26.184 5.996 5.996 0 1 0 11.524 3.34 168.88 168.88 0 0 1 9.156-24.44c40.264-85.992 141.24-116.34 160.048-107.54 18.204 8.524 59.308 107.568 19.868 191.792-22.712 48.5-64.588 76.44-87.532 88.78-35.748 19.224-64.396 22.56-72.512 18.76-12.568-5.884-35.948-52.648-36.436-111.396a6 6 0 0 0-6-5.948h-0.052a6 6 0 0 0-5.948 6.052c0.48 57.592 23.696 112.96 43.352 122.164 3.7 1.736 8.564 2.568 14.292 2.568 17.584 0 43.364-7.844 68.988-21.628 24.244-13.04 68.54-42.628 92.716-94.26 24.076-51.416 18.176-104.668 12.52-131.832z" fill="#3A312A" p-id="2547"></path><path d="M574.316 71.652h-2.92c-9.88 0-19.68 0.4-29.4 1.16 193.44 15.16 348.72 177.92 351.48 374.52 1.88 133.8-64.6 256.36-177.84 327.88-1.72 1.12-2.8 3.04-2.8 5.08v178.04h58.92v-178.04c0-2.04 1.08-3.96 2.8-5.08 113.2-71.52 179.68-194.08 177.84-327.88-2.88-205.52-172.48-374.08-378.08-375.68z" fill="#CCAE8B" p-id="2548"></path></svg>