<?xml version="1.0" standalone="no"?><!DOCTYPE svg PUBLIC "-//W3C//DTD SVG 1.1//EN" "http://www.w3.org/Graphics/SVG/1.1/DTD/svg11.dtd"><svg t="1538128185105" class="icon" style="" viewBox="0 0 1024 1024" version="1.1" xmlns="http://www.w3.org/2000/svg" p-id="1836" xmlns:xlink="http://www.w3.org/1999/xlink" width="64" height="64"><defs><style type="text/css"></style></defs><path d="M960 262v430c0 39.8-32.2 72-72 72H136c-39.8 0-72-32.2-72-72V136c0-39.8 32.2-72 72-72h171.5c51.8 0 102.5 15.3 145.6 44.1l64.1 42.7c38.4 25.6 83.4 39.2 129.5 39.2H888c39.8 0 72 32.2 72 72z" fill="#ABD9C5" p-id="1837"></path><path d="M952 960H72c-39.8 0-72-32.2-72-72V394c0-39.8 32.2-72 72-72h880c39.8 0 72 32.2 72 72v494c0 39.8-32.2 72-72 72z" fill="#19A57A" p-id="1838"></path></svg>