<?xml version="1.0" standalone="no"?><!DOCTYPE svg PUBLIC "-//W3C//DTD SVG 1.1//EN" "http://www.w3.org/Graphics/SVG/1.1/DTD/svg11.dtd"><svg t="1538128586056" class="icon" style="" viewBox="0 0 1072 1024" version="1.1" xmlns="http://www.w3.org/2000/svg" p-id="17935" xmlns:xlink="http://www.w3.org/1999/xlink" width="67" height="64"><defs><style type="text/css"></style></defs><path d="M1005.714495 111.772711H563.205266c-17.895415 0-35.742068-6.729066-46.957177-20.138436L444.812715 20.101378A64.364979 64.364979 0 0 0 397.806776 0.011703H67.058556A65.827819 65.827819 0 0 0 0.011703 67.058556v849.276389c0 37.98509 29.061763 67.046853 67.046853 67.046853h938.655939A65.827819 65.827819 0 0 0 1072.761348 916.334945V178.819564a65.827819 65.827819 0 0 0-67.046853-67.046853z m-252.58378 498.340972l-187.731188 201.140558a45.494337 45.494337 0 0 1-33.499046 13.458132 49.248961 49.248961 0 0 1-33.499045-13.458132l-187.731188-201.140558C283.802745 581.100681 303.941182 536.386525 344.169293 536.386525h102.837682V312.91327a44.86044 44.86044 0 0 1 44.665395-44.714156h89.428311a44.86044 44.86044 0 0 1 44.665394 44.714156V536.386525h93.865594c40.228112 0 60.366548 46.908416 33.547807 73.727158z" fill="#929EBD" p-id="17936"></path></svg>